<svg xmlns="http://www.w3.org/2000/svg" xmlns:xlink="http://www.w3.org/1999/xlink" width="500" zoomAndPan="magnify" viewBox="0 0 375 374.999991" height="500" preserveAspectRatio="xMidYMid meet" version="1.0"><defs><filter x="0%" y="0%" width="100%" height="100%" id="4ef74c5a1e"><feColorMatrix values="0 0 0 0 1 0 0 0 0 1 0 0 0 0 1 0 0 0 1 0" color-interpolation-filters="sRGB"/></filter><clipPath id="91a20c54b7"><path d="M 37.507812 42.949219 L 337.492188 42.949219 L 337.492188 342.929688 L 37.507812 342.929688 Z M 37.507812 42.949219 " clip-rule="nonzero"/></clipPath><clipPath id="a4ab2079bb"><path d="M 187.5 42.949219 C 104.664062 42.949219 37.507812 110.101562 37.507812 192.9375 C 37.507812 275.777344 104.664062 342.929688 187.5 342.929688 C 270.335938 342.929688 337.492188 275.777344 337.492188 192.9375 C 337.492188 110.101562 270.335938 42.949219 187.5 42.949219 " clip-rule="nonzero"/></clipPath><mask id="339d34781c"><g filter="url(#4ef74c5a1e)"><rect x="-37.5" width="450" fill="#000000" y="-37.499999" height="449.999989" fill-opacity="0.2471"/></g></mask><clipPath id="4fd9c76441"><path d="M 50 70 L 278 70 L 278 245 L 50 245 Z M 50 70 " clip-rule="nonzero"/></clipPath><clipPath id="532698cfd8"><path d="M 321.171875 205.78125 L 85.886719 302.140625 L 2.035156 97.394531 L 237.320312 1.039062 Z M 321.171875 205.78125 " clip-rule="nonzero"/></clipPath><clipPath id="59b55c58fc"><path d="M 321.171875 205.78125 L 85.886719 302.140625 L 2.035156 97.394531 L 237.320312 1.039062 Z M 321.171875 205.78125 " clip-rule="nonzero"/></clipPath><clipPath id="30b0c72336"><path d="M 321.171875 205.78125 L 85.886719 302.140625 L 2.035156 97.394531 L 237.320312 1.039062 Z M 321.171875 205.78125 " clip-rule="nonzero"/></clipPath><clipPath id="574e86c4fc"><rect x="0" width="322" y="0" height="303"/></clipPath></defs><rect x="-37.5" width="450" fill="#ffffff" y="-37.499999" height="449.999989" fill-opacity="1"/><rect x="-37.5" width="450" fill="#ffffff" y="-37.499999" height="449.999989" fill-opacity="1"/><rect x="-37.5" width="450" fill="#ffffff" y="-37.499999" height="449.999989" fill-opacity="1"/><g clip-path="url(#91a20c54b7)"><g clip-path="url(#a4ab2079bb)"><path fill="#dd7f31" d="M 37.507812 42.949219 L 337.492188 42.949219 L 337.492188 342.929688 L 37.507812 342.929688 Z M 37.507812 42.949219 " fill-opacity="1" fill-rule="nonzero"/></g></g><g mask="url(#339d34781c)"><g transform="matrix(1, 0, 0, 1, 26, 66)"><g clip-path="url(#574e86c4fc)"><g clip-path="url(#4fd9c76441)"><g clip-path="url(#532698cfd8)"><g clip-path="url(#59b55c58fc)"><g clip-path="url(#30b0c72336)"><path fill="#e9af7c" d="M 135.234375 238.546875 C 92.199219 222.976562 11.226562 119.417969 72.828125 78.820312 C 114.484375 51.34375 121.101562 95.300781 178.191406 129.703125 C 197.105469 141.078125 289.652344 129.242188 276.03125 187.878906 C 267.949219 222.625 191.515625 258.878906 135.234375 238.546875 Z M 135.234375 238.546875 " fill-opacity="1" fill-rule="nonzero"/></g></g></g></g></g></g></g><path fill="#000000" d="M 50.792969 171.996094 C 50.925781 171.121094 51.105469 170.257812 51.253906 169.382812 C 51.226562 169.527344 51.191406 169.671875 51.167969 169.816406 C 51.03125 170.539062 50.914062 171.269531 50.792969 171.996094 " fill-opacity="1" fill-rule="nonzero"/><path fill="#000000" d="M 50.792969 171.996094 C 50.765625 172.171875 50.730469 172.347656 50.703125 172.527344 C 50.730469 172.351562 50.765625 172.171875 50.792969 171.996094 " fill-opacity="1" fill-rule="nonzero"/><path fill="#000000" d="M 54.382812 155.46875 C 53.109375 160.050781 52.070312 164.695312 51.253906 169.382812 C 52.128906 164.726562 53.167969 160.082031 54.382812 155.46875 " fill-opacity="1" fill-rule="nonzero"/><path fill="#000000" d="M 55.214844 228.6875 C 55.230469 228.722656 55.277344 228.707031 55.269531 228.671875 C 48.996094 210.972656 47.867188 191.515625 50.703125 172.527344 C 47.609375 191.386719 48.777344 210.613281 55.214844 228.6875 " fill-opacity="1" fill-rule="nonzero"/><path fill="#000000" d="M 311.277344 275.65625 C 298.726562 298.8125 280.117188 319.714844 255.070312 329.292969 C 254.207031 329.621094 253.339844 329.875 252.476562 330.167969 C 266.320312 324.175781 278.65625 314.757812 288.964844 303.757812 C 318.609375 272.121094 333.609375 225.984375 333.507812 182.980469 C 333.675781 189.523438 333.480469 196.015625 333.039062 202.300781 C 331.210938 228.1875 323.609375 252.875 311.277344 275.65625 Z M 224.789062 334.199219 C 224.636719 334.199219 224.488281 334.1875 224.328125 334.1875 C 224.339844 334.183594 224.355469 334.175781 224.367188 334.171875 C 224.785156 333.925781 224.503906 333.246094 224.035156 333.386719 C 223.089844 333.667969 222.15625 333.90625 221.214844 334.164062 C 219.269531 334.121094 217.324219 334.058594 215.367188 333.964844 C 209.816406 333.695312 204.277344 333.253906 198.746094 332.714844 C 200.511719 332.351562 202.273438 331.972656 204.003906 331.574219 C 212.867188 329.539062 221.480469 326.890625 229.726562 323.492188 C 245.378906 321.171875 260.84375 316.574219 274.394531 308.519531 C 292.230469 297.917969 303.308594 279.105469 310.515625 260.179688 C 311.722656 257.003906 312.792969 253.785156 313.804688 250.535156 C 314.070312 250.613281 314.378906 250.515625 314.472656 250.15625 C 320.015625 229.152344 323.683594 206.214844 323.125 183.660156 C 323.238281 163.933594 321.085938 143.976562 315.78125 124.996094 C 315.660156 124.574219 315.019531 124.746094 315.125 125.171875 C 317.925781 136.082031 319.644531 147.273438 320.578125 158.546875 C 317.890625 144.0625 312.984375 130.128906 305.144531 117.425781 C 301.855469 112.105469 298.0625 107.195312 293.886719 102.652344 C 302.007812 108.769531 309.875 115.492188 315.914062 123.511719 C 320.378906 130.71875 323.9375 138.492188 326.292969 146.835938 C 332.402344 168.523438 331.984375 191.898438 328.1875 213.949219 C 320.628906 257.8125 296.75 304.578125 255.585938 325.285156 C 246.007812 330.105469 235.53125 332.894531 224.789062 334.199219 Z M 172.308594 336.96875 C 171.492188 336.820312 170.6875 336.613281 169.867188 336.441406 C 173.421875 336.292969 176.972656 336.03125 180.503906 335.636719 C 187.328125 336.898438 194.28125 337.730469 201.25 338.0625 C 191.804688 339.066406 182.308594 338.824219 172.308594 336.96875 Z M 118.332031 314.742188 C 111.753906 310.550781 105.15625 305.714844 98.871094 300.332031 C 108.945312 308.433594 120.398438 314.730469 132.671875 318.636719 C 134.144531 319.273438 135.628906 319.898438 137.128906 320.5 C 145.691406 325.027344 154.679688 328.796875 164.011719 331.644531 C 168.96875 333.148438 174.054688 334.398438 179.21875 335.398438 C 175.640625 335.773438 172.035156 336.023438 168.425781 336.128906 C 150.605469 332.226562 133.65625 324.515625 118.332031 314.742188 Z M 95.140625 293.882812 C 94.945312 293.703125 94.75 293.515625 94.546875 293.332031 C 90.894531 286.902344 87.1875 280.371094 83.574219 273.675781 C 91.671875 285.089844 101.359375 295.3125 112.226562 304.089844 C 108.347656 302.617188 104.679688 300.925781 101.214844 298.945312 C 99.132812 297.328125 97.101562 295.648438 95.140625 293.882812 Z M 76.390625 271.933594 C 72.683594 264.625 69.96875 256.769531 67.847656 248.957031 C 67.648438 248.242188 67.476562 247.511719 67.289062 246.792969 C 73.066406 260.554688 80.074219 273.835938 87.398438 286.273438 C 83.382812 281.863281 79.71875 277.054688 76.390625 271.933594 Z M 58.832031 232.625 C 60.5625 241.238281 63.085938 249.699219 66.476562 257.703125 C 70.109375 266.269531 74.898438 274.339844 80.601562 281.714844 C 68.910156 267.371094 60.445312 250.710938 58.832031 232.625 Z M 64.578125 240.050781 C 65.378906 243.992188 66.292969 247.921875 67.371094 251.816406 C 68.339844 255.328125 69.511719 258.890625 70.871094 262.425781 C 70.089844 260.9375 69.28125 259.476562 68.558594 257.9375 C 63.40625 247.015625 60.386719 234.933594 58.765625 222.816406 C 60.425781 228.617188 62.386719 234.371094 64.578125 240.050781 Z M 57.488281 209.171875 C 57.410156 207.671875 57.351562 206.152344 57.316406 204.625 C 57.695312 207.941406 58.15625 211.253906 58.753906 214.546875 C 58.292969 212.761719 57.878906 210.972656 57.488281 209.171875 Z M 55.980469 201.195312 C 53.625 186.363281 53.765625 171.234375 57.671875 155.917969 C 63.179688 134.328125 74.664062 113.980469 89.265625 97.273438 C 92.292969 93.800781 95.558594 90.457031 99.03125 87.320312 C 100.9375 85.757812 102.878906 84.222656 104.824219 82.699219 C 105.582031 82.734375 106.328125 82.722656 107.078125 82.738281 C 99.617188 89.371094 92.839844 96.480469 86.980469 103.636719 C 86.378906 104.371094 85.792969 105.121094 85.203125 105.867188 C 84.757812 106.226562 84.316406 106.582031 83.871094 106.945312 C 86.238281 103.171875 88.890625 99.589844 91.898438 96.277344 C 92.070312 96.09375 91.796875 95.8125 91.621094 96 C 86.285156 101.710938 82.015625 108.101562 78.542969 114.910156 C 68.320312 129.835938 60.785156 146.480469 58.019531 164.511719 C 56.585938 173.921875 56.085938 183.441406 56.433594 192.925781 C 56.183594 195.679688 56.035156 198.445312 55.980469 201.195312 Z M 110.539062 78.328125 C 112.824219 76.804688 115.15625 75.371094 117.558594 74.074219 C 114.160156 76.652344 110.886719 79.367188 107.71875 82.164062 C 106.984375 82.175781 106.257812 82.179688 105.527344 82.164062 C 107.191406 80.878906 108.855469 79.597656 110.539062 78.328125 Z M 126.183594 70.109375 C 130.480469 68.457031 134.929688 67.242188 139.507812 66.515625 C 138.632812 67.015625 137.75 67.519531 136.886719 68.046875 C 131.304688 70.960938 125.859375 74.28125 120.601562 77.996094 C 118.894531 79.207031 117.222656 80.449219 115.542969 81.699219 C 113.882812 81.886719 112.214844 82.007812 110.539062 82.097656 C 115.507812 77.789062 120.722656 73.757812 126.183594 70.109375 Z M 155.316406 55.234375 C 171.09375 49.542969 188.546875 47.867188 204.761719 52.410156 C 200.042969 51.789062 195.3125 51.4375 190.617188 51.402344 C 183.175781 50.542969 176.160156 51.496094 169.402344 53.613281 C 162.964844 55.078125 156.703125 57.296875 150.710938 60.417969 C 150.355469 60.605469 150.28125 60.914062 150.355469 61.203125 C 147.199219 62.484375 144.121094 63.949219 141.125 65.597656 C 137.171875 65.996094 133.332031 66.761719 129.609375 67.882812 C 137.734375 62.777344 146.332031 58.484375 155.316406 55.234375 Z M 232.953125 68.164062 C 237.691406 69.800781 242.375 71.585938 246.960938 73.519531 C 248.546875 74.273438 250.101562 75.089844 251.664062 75.886719 C 245.191406 73.910156 239.027344 71.15625 232.953125 68.164062 Z M 163.875 57.191406 C 174.664062 54.1875 186.023438 53.527344 197.273438 54.40625 C 198.769531 54.773438 200.25 55.1875 201.707031 55.660156 C 203.449219 56.21875 205.164062 56.855469 206.863281 57.527344 C 203.988281 56.960938 201.109375 56.453125 198.199219 56.074219 C 189.925781 54.996094 181.855469 55.0625 173.988281 56.054688 C 172.808594 56.113281 171.632812 56.164062 170.460938 56.261719 C 168.222656 56.449219 166.035156 56.785156 163.875 57.191406 Z M 121.214844 80.882812 C 124.773438 77.976562 128.4375 75.15625 132.230469 72.5625 C 135.621094 70.558594 139.089844 68.703125 142.660156 67.003906 C 135.707031 71.324219 128.886719 75.890625 122.222656 80.691406 C 121.886719 80.75 121.550781 80.828125 121.214844 80.882812 Z M 93.402344 99.214844 C 98.441406 93.410156 103.914062 87.902344 109.746094 82.78125 C 111.300781 82.75 112.84375 82.65625 114.382812 82.550781 C 107.242188 87.902344 100.316406 93.558594 93.402344 99.214844 Z M 117.371094 82.371094 C 114.25 84.980469 111.1875 87.640625 108.183594 90.292969 C 104.675781 93.390625 101.246094 96.589844 97.925781 99.898438 C 96.425781 101.203125 94.921875 102.503906 93.457031 103.832031 C 89.410156 107.484375 84.613281 111.792969 80.152344 116.570312 C 83.191406 111.992188 86.457031 107.558594 89.929688 103.316406 C 99.117188 96.386719 108.066406 89.078125 117.371094 82.371094 Z M 60.058594 177.480469 C 60.511719 175.773438 61.039062 174.097656 61.628906 172.441406 C 61.097656 182.429688 61.589844 192.550781 63.085938 202.511719 C 63.246094 208.492188 63.605469 214.441406 64.203125 220.3125 C 64.5 223.242188 64.933594 226.152344 65.472656 229.035156 C 63.9375 223.828125 62.640625 218.539062 61.664062 213.179688 C 60.566406 201.316406 60.199219 189.351562 60.058594 177.480469 Z M 60.199219 203.128906 C 59.359375 195.75 59 188.296875 59.253906 180.816406 C 59.363281 180.300781 59.492188 179.796875 59.617188 179.289062 C 59.644531 187.230469 59.796875 195.1875 60.199219 203.128906 Z M 61.902344 167.609375 C 61.835938 168.449219 61.8125 169.304688 61.761719 170.152344 C 61.132812 171.679688 60.542969 173.226562 60.035156 174.804688 C 60.019531 173.253906 60.011719 171.710938 60 170.164062 C 60.167969 168.515625 60.351562 166.867188 60.582031 165.21875 C 61.589844 157.921875 63.433594 150.851562 65.941406 144.015625 C 63.84375 151.75 62.578125 159.742188 61.902344 167.609375 Z M 64.90625 164.9375 C 63.476562 176.480469 62.855469 188.265625 63.046875 199.964844 C 61.796875 190.644531 61.351562 181.125 61.917969 171.691406 C 62.765625 169.375 63.765625 167.117188 64.90625 164.9375 Z M 62.066406 169.433594 C 62.984375 157.460938 65.484375 145.691406 69.789062 134.804688 C 70.648438 132.957031 71.570312 131.140625 72.519531 129.335938 C 69.777344 137.441406 67.847656 145.859375 66.429688 154.28125 C 65.917969 157.277344 65.484375 160.300781 65.089844 163.339844 C 63.960938 165.316406 62.953125 167.347656 62.066406 169.433594 Z M 122.949219 312.027344 C 118.421875 309.976562 114.074219 307.628906 109.914062 305.011719 C 111.59375 305.542969 113.320312 305.980469 115.09375 306.320312 C 117.664062 308.292969 120.269531 310.214844 122.949219 312.027344 Z M 190.8125 333.726562 C 190.558594 333.769531 190.300781 333.808594 190.046875 333.859375 C 187.472656 333.542969 184.917969 333.183594 182.402344 332.761719 C 180.003906 332.363281 177.628906 331.878906 175.257812 331.355469 C 180.414062 332.3125 185.609375 333.074219 190.8125 333.726562 Z M 201.191406 334.867188 C 197.980469 334.691406 194.789062 334.417969 191.628906 334.054688 C 191.890625 334.011719 192.148438 333.964844 192.410156 333.917969 C 195.335938 334.269531 198.261719 334.589844 201.191406 334.867188 Z M 171.246094 328.808594 C 164.902344 327.582031 158.585938 326.074219 152.351562 324.277344 C 150.582031 323.566406 148.816406 322.832031 147.074219 322.054688 C 148.414062 322.261719 149.757812 322.449219 151.109375 322.59375 C 152.203125 322.714844 152.460938 320.847656 151.371094 320.667969 C 146.757812 319.886719 142.25 318.851562 137.867188 317.578125 C 132.90625 314.949219 128.113281 312.011719 123.476562 308.851562 C 128.394531 311.597656 133.519531 313.980469 138.820312 315.941406 C 139.289062 316.113281 139.585938 315.378906 139.15625 315.140625 C 137.410156 314.1875 135.683594 313.226562 133.960938 312.257812 C 137.980469 314.023438 142.085938 315.589844 146.195312 316.960938 C 168.035156 324.253906 191.574219 326.488281 214.472656 325.070312 C 218.015625 324.859375 221.570312 324.535156 225.121094 324.105469 C 215.945312 327.730469 206.386719 330.488281 196.800781 332.527344 C 188.234375 331.636719 179.707031 330.441406 171.246094 328.808594 Z M 319.921875 171.625 C 321.796875 193.148438 319.277344 215.429688 315.71875 236.699219 C 313.195312 247.660156 309.738281 258.375 305.128906 268.589844 C 295.726562 289.390625 281.027344 305.089844 259.785156 313.6875 C 252.21875 316.753906 244.332031 318.996094 236.285156 320.585938 C 247.09375 315.457031 257.171875 308.898438 266.199219 300.542969 C 298.960938 270.210938 319.132812 222.621094 319.992188 178.179688 C 320.035156 175.992188 320.003906 173.804688 319.921875 171.625 Z M 268.800781 90.71875 C 269.945312 91.714844 271.15625 92.773438 272.398438 93.863281 C 274.921875 95.378906 277.414062 96.957031 279.820312 98.632812 C 322.1875 128.132812 323.753906 184.914062 308.542969 229.675781 C 297.410156 262.453125 276.628906 294.726562 246.835938 313.308594 C 241.886719 316.394531 236.679688 319.078125 231.328125 321.484375 C 218.242188 323.617188 204.828125 324.085938 191.753906 323.460938 C 159.09375 321.894531 120.335938 312.355469 99.585938 284.925781 C 99.398438 284.667969 98.972656 284.898438 99.152344 285.167969 C 101.324219 288.394531 103.785156 291.347656 106.453125 294.0625 C 102.320312 290.703125 98.363281 287.082031 94.640625 283.117188 C 86.566406 273.664062 79.820312 263.238281 74.433594 252.164062 C 69.898438 241.546875 67.007812 230.214844 65.769531 218.683594 C 65.621094 217.269531 65.515625 215.839844 65.394531 214.417969 C 67.054688 221.390625 69.191406 228.222656 71.921875 234.789062 C 71.949219 234.863281 72.070312 234.832031 72.042969 234.753906 C 69.234375 227.757812 66.945312 220.289062 65.234375 212.5625 C 63.945312 195.714844 64.667969 178.355469 66.804688 161.621094 C 67.09375 161.171875 67.347656 160.707031 67.65625 160.261719 C 67.851562 159.96875 67.375 159.695312 67.179688 159.984375 C 67.105469 160.082031 67.046875 160.1875 66.984375 160.285156 C 67.160156 158.953125 67.320312 157.605469 67.515625 156.277344 C 69.066406 145.679688 71.476562 134.785156 75.320312 124.507812 C 75.636719 124.105469 75.949219 123.699219 76.269531 123.308594 C 79.742188 118.996094 83.589844 114.988281 87.578125 111.128906 C 85.410156 113.722656 83.328125 116.378906 81.351562 119.125 C 76.089844 126.445312 70.980469 135.53125 71.929688 144.890625 C 71.929688 144.957031 72.039062 144.957031 72.035156 144.890625 C 71.285156 136.039062 76.800781 127.636719 81.652344 120.707031 C 86.886719 113.234375 93.1875 106.464844 99.769531 100.09375 C 107.417969 93.535156 115.421875 87.351562 123.660156 81.496094 C 126.367188 81.074219 129.054688 80.550781 131.738281 79.988281 C 132.863281 79.359375 133.988281 78.734375 135.132812 78.132812 C 135.359375 77.957031 135.574219 77.773438 135.796875 77.601562 C 132.496094 78.460938 129.191406 79.285156 125.871094 79.984375 C 132.738281 75.171875 139.742188 70.550781 146.878906 66.21875 C 148.703125 65.105469 150.550781 64.007812 152.414062 62.933594 C 153.492188 62.542969 154.558594 62.117188 155.65625 61.765625 C 163.171875 59.328125 170.789062 57.984375 178.417969 57.539062 C 187.46875 57.574219 196.574219 58.855469 205.25 60.578125 C 210.9375 61.707031 216.605469 63.113281 222.226562 64.742188 C 228.441406 67.992188 234.59375 71.339844 240.96875 74.121094 C 244.28125 74.726562 247.660156 76.074219 250.9375 77.800781 C 253.496094 78.558594 256.109375 79.226562 258.800781 79.671875 C 265.238281 83.234375 271.523438 87.058594 277.640625 91.144531 C 286.132812 97.695312 293.707031 105.367188 299.996094 114.1875 C 290.375 102.183594 277.566406 93.207031 263.691406 86.425781 C 265.59375 87.953125 267.320312 89.433594 268.800781 90.71875 Z M 219.9375 58.140625 C 244.585938 64.226562 267.960938 76.410156 287.683594 92.332031 C 294.667969 97.964844 301.167969 104.214844 306.882812 111.058594 C 299.546875 104.046875 291.214844 97.894531 282.652344 92.03125 C 277.015625 87.394531 270.910156 83.316406 264.546875 79.671875 C 264.652344 79.175781 264.375 78.542969 263.714844 78.46875 C 263.148438 78.402344 262.597656 78.292969 262.039062 78.210938 C 259.390625 76.761719 256.714844 75.378906 253.992188 74.085938 C 250.421875 72.398438 246.753906 70.796875 243.011719 69.277344 C 234.105469 65.273438 224.925781 61.925781 215.527344 59.476562 C 212.367188 58 209.175781 56.601562 205.90625 55.375 C 210.652344 56.070312 215.347656 57.011719 219.9375 58.140625 Z M 328.859375 144.085938 C 327.378906 139.714844 325.503906 135.644531 323.351562 131.808594 C 321.835938 128.53125 320.136719 125.335938 318.21875 122.242188 C 306.226562 102.902344 287.902344 87.699219 268.640625 76.023438 C 251.03125 65.351562 229.535156 56.253906 207.734375 52.839844 C 178.273438 42.382812 147.792969 52.722656 122.480469 70.488281 C 121.1875 71.042969 119.925781 71.652344 118.667969 72.28125 C 122.949219 69.101562 127.222656 65.929688 131.382812 62.671875 C 131.457031 62.621094 131.355469 62.492188 131.285156 62.550781 C 126.605469 66.113281 121.847656 69.589844 117.105469 73.097656 C 107.546875 78.144531 98.9375 85.203125 91.40625 93.023438 C 90.40625 94.058594 89.464844 95.167969 88.496094 96.242188 C 81.042969 103.324219 74.289062 111.109375 68.792969 120.160156 C 62.179688 131.054688 57.625 143.113281 54.382812 155.46875 C 57.964844 142.539062 63.269531 130.144531 69.972656 119.070312 C 74.523438 111.550781 80.039062 104.9375 86.132812 98.859375 C 73.109375 114.097656 63.289062 132.386719 57.421875 151.453125 C 51.203125 171.691406 51.710938 192.480469 56.230469 212.847656 C 56.546875 218.042969 57.164062 223.242188 58.039062 228.410156 C 58.65625 256.089844 74.875 280.503906 95.234375 299.144531 C 95.277344 299.207031 95.3125 299.269531 95.347656 299.328125 C 95.511719 299.589844 95.726562 299.722656 95.949219 299.796875 C 102.414062 305.644531 109.273438 310.917969 116.175781 315.527344 C 129.675781 324.542969 144.621094 331.632812 160.261719 336.113281 C 149.863281 335.761719 139.53125 334.078125 129.835938 330.640625 C 129.691406 330.589844 129.632812 330.8125 129.773438 330.863281 C 139.964844 334.664062 150.8125 336.328125 161.78125 336.546875 C 165.085938 337.453125 168.40625 338.289062 171.765625 338.949219 C 185.445312 341.660156 201.738281 342.589844 215.585938 338.035156 C 221.558594 337.730469 227.480469 337.03125 233.289062 335.949219 C 238.3125 335.59375 243.320312 334.875 248.320312 333.601562 C 297.128906 321.203125 325.300781 265.550781 332.964844 219.648438 C 337.125 194.761719 337.019531 168.164062 328.859375 144.085938 " fill-opacity="1" fill-rule="nonzero"/><path fill="#000000" d="M 244.519531 245.832031 C 236.171875 237.609375 226.398438 232.65625 215.535156 228.132812 C 215.089844 227.945312 214.765625 228.71875 215.207031 228.90625 C 221.402344 231.542969 227.242188 234.703125 232.957031 238.253906 C 234.300781 239.085938 235.53125 239.992188 236.699219 240.941406 C 231.878906 238.125 226.992188 235.523438 222.375 233.058594 C 217.945312 230.699219 213.414062 228.445312 208.789062 226.429688 C 209.785156 226.652344 210.75 226.746094 211.640625 226.601562 C 212.117188 226.527344 212.046875 225.933594 211.761719 225.710938 C 209.660156 224.097656 192.46875 215.464844 188.101562 216.136719 C 188.019531 215.832031 187.96875 215.511719 187.875 215.207031 C 187.925781 215.179688 187.988281 215.160156 188.035156 215.121094 C 189.886719 213.5625 188.605469 208.566406 188.347656 206.679688 C 187.445312 199.992188 186.453125 193.316406 185.746094 186.601562 C 183.691406 166.976562 183.636719 147.125 182.933594 127.394531 C 186.710938 135.082031 191.925781 143.429688 192.808594 145.023438 C 200.121094 158.300781 208.375 171.257812 214.921875 184.9375 C 221.824219 199.351562 230.46875 213.050781 238.390625 226.917969 C 242.707031 234.480469 247.027344 242.050781 251.199219 249.699219 C 251.503906 250.257812 251.78125 250.828125 252.082031 251.390625 C 249.683594 249.425781 247.140625 247.585938 244.519531 245.832031 Z M 248.980469 254.640625 C 245.941406 251.878906 242.363281 249.625 238.992188 247.386719 C 236.550781 245.765625 234.140625 244.152344 231.738281 242.515625 C 238.808594 246.519531 245.910156 250.984375 251.914062 256.285156 C 250.976562 255.648438 250 255.054688 248.980469 254.640625 Z M 199.4375 222.804688 C 197.109375 222.042969 192.703125 220.367188 189.023438 220.105469 C 188.976562 219.816406 188.902344 219.535156 188.847656 219.25 C 188.847656 219.136719 188.824219 219.023438 188.785156 218.917969 C 188.679688 218.402344 188.527344 217.902344 188.410156 217.390625 C 189.210938 217.667969 190.097656 218.15625 190.707031 218.390625 C 193.617188 219.511719 196.441406 220.878906 199.273438 222.179688 C 200.367188 222.683594 201.671875 223.402344 203.046875 224.117188 C 201.847656 223.667969 200.648438 223.199219 199.4375 222.804688 Z M 185.335938 220.285156 C 185.21875 220.429688 185.105469 220.578125 184.980469 220.722656 C 184.84375 220.792969 184.679688 220.84375 184.550781 220.933594 C 184.441406 221.019531 184.390625 221.144531 184.367188 221.265625 C 181.539062 223.785156 178.816406 226.492188 175.757812 228.667969 C 176.054688 228.292969 176.371094 227.933594 176.652344 227.546875 C 176.746094 227.441406 176.851562 227.347656 176.941406 227.242188 C 179.910156 224.847656 182.792969 222.339844 185.53125 219.667969 C 186.457031 218.773438 185.292969 217.484375 184.230469 217.984375 C 176.75 221.515625 170.515625 226.992188 165.324219 233.367188 C 160.503906 236.804688 155.597656 240.140625 150.773438 243.578125 C 150.054688 244.089844 150.703125 245.257812 151.476562 244.78125 C 152.96875 243.851562 154.464844 242.914062 155.957031 241.972656 C 155.054688 242.710938 154.199219 243.523438 153.40625 244.433594 C 149.804688 247.332031 146.082031 250.351562 142.746094 253.691406 C 140.332031 255.582031 137.917969 257.476562 135.550781 259.421875 C 137.214844 254.074219 138.917969 248.746094 140.675781 243.429688 C 145.5625 228.644531 150.808594 213.972656 156.046875 199.308594 C 164.296875 176.21875 172.71875 153.035156 179.457031 129.421875 C 179.257812 147.792969 180.554688 166.425781 181.886719 184.648438 C 182.304688 190.378906 183.167969 196.089844 183.941406 201.792969 C 184.242188 204.054688 184.550781 206.308594 184.875 208.570312 C 184.394531 208.535156 183.851562 208.941406 184.058594 209.480469 C 184.605469 210.9375 184.527344 212.582031 184.574219 214.101562 C 184.582031 214.351562 184.964844 214.351562 184.972656 214.101562 C 184.980469 213.707031 184.980469 213.304688 184.996094 212.902344 C 185.503906 214.757812 186.003906 216.617188 186.386719 218.515625 C 186.394531 218.578125 186.402344 218.640625 186.417969 218.699219 C 185.980469 219.277344 185.609375 219.945312 185.335938 220.285156 Z M 150.464844 253.238281 C 152.800781 250.777344 155.179688 248.347656 157.585938 245.945312 C 157.636719 246.015625 157.675781 246.089844 157.742188 246.144531 C 155.375 248.566406 152.933594 250.914062 150.464844 253.238281 Z M 143.25 259.753906 C 142.070312 260.742188 140.847656 261.757812 139.625 262.8125 C 139.953125 262.5 140.28125 262.183594 140.589844 261.867188 C 143.800781 258.5625 147.109375 255.40625 150.554688 252.359375 C 148.183594 254.902344 145.75 257.375 143.25 259.753906 Z M 133.03125 267.878906 C 133.269531 267.027344 133.460938 266.175781 133.667969 265.488281 C 133.832031 264.941406 134.011719 264.390625 134.179688 263.839844 C 134.808594 263.359375 135.4375 262.875 136.0625 262.394531 C 136.207031 262.839844 136.804688 263.136719 137.175781 262.703125 C 138.402344 261.300781 139.679688 259.96875 140.96875 258.648438 C 142.367188 257.578125 143.75 256.5 145.148438 255.421875 C 144.195312 256.292969 143.25 257.179688 142.328125 258.089844 C 140.785156 259.617188 139.316406 261.230469 137.828125 262.808594 C 136.46875 264.25 134.769531 266.660156 133.03125 267.878906 Z M 159.90625 176.226562 C 164.085938 163.148438 167.171875 149.867188 171.113281 136.742188 C 172.160156 133.25 173.296875 129.765625 174.40625 126.292969 C 174.882812 124.800781 175.464844 122.347656 176.28125 120.015625 C 176.339844 120.242188 176.554688 120.402344 176.761719 120.375 C 176.601562 121.21875 176.449219 122.027344 176.28125 122.71875 C 174.433594 130.042969 171.578125 137.617188 171.335938 145.21875 C 171.335938 145.269531 171.367188 145.300781 171.382812 145.34375 C 166.167969 160.886719 160.765625 176.363281 155.175781 191.796875 C 152.835938 198.285156 150.5 204.78125 148.191406 211.285156 C 152.105469 199.597656 156.152344 187.945312 159.90625 176.226562 Z M 178.1875 120.207031 C 178.195312 120.1875 178.214844 120.1875 178.230469 120.164062 C 178.605469 119.316406 178.875 118.382812 179.089844 117.40625 C 179.222656 118.15625 179.433594 118.976562 179.722656 119.886719 C 178.214844 124.648438 176.660156 129.390625 175.109375 134.136719 C 176.023438 129.453125 176.894531 124.734375 178.1875 120.207031 Z M 186.351562 122.015625 C 187.265625 123.511719 188.054688 125.027344 188.746094 126.5625 C 187.90625 125.34375 187.027344 124.117188 186.199219 122.871094 C 186.359375 122.921875 186.542969 122.800781 186.503906 122.59375 C 186.460938 122.398438 186.402344 122.207031 186.351562 122.015625 Z M 260.632812 259.675781 C 260.21875 259.1875 259.742188 258.738281 259.308594 258.257812 C 258.277344 251.832031 248.46875 236.777344 247.261719 234.640625 C 238.503906 219.140625 229.4375 203.804688 220.914062 188.179688 C 214.558594 176.539062 208.175781 164.9375 201.617188 153.398438 C 199.457031 149.582031 197.332031 145.746094 195.207031 141.910156 C 195.011719 141.367188 194.804688 140.832031 194.636719 140.28125 C 193.542969 136.804688 192.515625 133.269531 190.859375 130.011719 C 190.777344 129.84375 190.667969 129.671875 190.570312 129.5 C 190.082031 128.269531 189.554688 127.050781 188.984375 125.84375 C 188.121094 124.03125 187.003906 122.25 185.917969 120.445312 C 186.152344 120.3125 186.324219 120.058594 186.230469 119.796875 C 185.527344 117.929688 184.449219 116.199219 183.699219 114.347656 C 183.660156 114.246094 183.621094 114.144531 183.582031 114.050781 C 183.863281 112.984375 184.140625 111.917969 184.394531 110.855469 C 184.65625 109.78125 183.074219 109.34375 182.746094 110.394531 C 182.691406 110.574219 182.632812 110.753906 182.574219 110.933594 C 182.496094 110.878906 182.40625 110.871094 182.320312 110.886719 C 182.058594 110.265625 181.8125 109.644531 181.507812 109.046875 C 181.175781 108.398438 180.070312 108.683594 180.121094 109.421875 C 180.125 109.4375 180.121094 109.449219 180.121094 109.460938 C 179.804688 109.238281 179.480469 109.027344 179.113281 108.824219 C 178.613281 108.558594 178.136719 108.902344 178.070312 109.421875 C 177.875 111.15625 177.855469 112.914062 177.714844 114.65625 C 174.195312 117.832031 172.351562 127.035156 171.324219 130.25 C 167.21875 143.140625 164.277344 156.320312 160.058594 169.183594 C 155.074219 184.394531 150.246094 199.652344 145.03125 214.789062 C 140.945312 226.644531 136.734375 238.675781 134.582031 251.082031 C 134.558594 251.167969 134.523438 251.257812 134.496094 251.34375 C 133.3125 255.011719 132.164062 258.6875 131.027344 262.375 C 130.898438 262.789062 130.777344 263.203125 130.652344 263.621094 C 129.628906 264.523438 128.578125 265.398438 127.585938 266.335938 L 127.609375 266.355469 C 127.070312 266.949219 127.457031 267.898438 128.101562 268.054688 C 127.875 268.738281 127.683594 269.417969 127.683594 270.160156 C 127.683594 270.84375 128.175781 271.585938 128.878906 271.730469 C 131.042969 272.164062 132.0625 270.6875 132.699219 268.925781 C 132.765625 268.945312 132.828125 268.972656 132.90625 268.949219 C 133.277344 268.863281 133.535156 268.800781 133.753906 268.714844 C 132.363281 270.449219 131.203125 272.261719 130.53125 274.214844 C 130.484375 274.351562 130.65625 274.492188 130.78125 274.40625 C 137.335938 269.738281 143.152344 263.433594 149.207031 258.054688 C 155.726562 252.265625 163.226562 246.320312 167.886719 238.832031 C 168.183594 238.363281 168.101562 237.839844 167.832031 237.445312 C 170.277344 235.503906 173.097656 233.40625 174.46875 230.6875 C 176.652344 229.390625 178.589844 227.777344 180.5 226.125 C 180.171875 226.484375 179.851562 226.839844 179.507812 227.179688 C 179.511719 227.179688 179.519531 227.183594 179.523438 227.183594 C 178.984375 227.714844 179.738281 228.652344 180.421875 228.09375 C 182.519531 226.382812 183.832031 224.015625 185.695312 222.140625 C 185.972656 222.222656 186.246094 222.3125 186.535156 222.375 C 178.003906 230.949219 169.726562 240.078125 160.558594 247.910156 C 160.308594 248.121094 160.664062 248.476562 160.917969 248.269531 C 170.152344 240.695312 177.789062 231.164062 186.992188 223.601562 C 187.152344 225.332031 187.347656 227.054688 187.855469 228.683594 C 188.011719 229.191406 188.757812 229.210938 188.902344 228.683594 C 189.386719 226.96875 189.488281 224.980469 189.347656 222.914062 C 189.445312 222.933594 189.550781 222.953125 189.648438 222.972656 C 190.414062 223.167969 191.160156 223.433594 191.914062 223.667969 C 202.429688 228.542969 213.023438 231.5625 222.347656 239.105469 C 231.15625 246.238281 241.164062 252.261719 250.363281 258.894531 C 250.90625 259.28125 251.421875 259.007812 251.667969 258.550781 C 251.996094 258.804688 252.320312 259.050781 252.636719 259.300781 C 254.148438 260.480469 256.132812 262.300781 258.105469 262.535156 C 258.113281 262.535156 258.121094 262.527344 258.136719 262.527344 C 259.734375 264.003906 262.144531 261.46875 260.632812 259.675781 " fill-opacity="1" fill-rule="nonzero"/></svg>